<svg xmlns="http://www.w3.org/2000/svg" xmlns:xlink="http://www.w3.org/1999/xlink" width="700" height="500">
<defs>
<style type="text/css"><![CDATA[
  .borderLine {
	   stroke: none;
	   fill-opacity:  0.2 ;
  }
  .outLine {
	   stroke-width:  1 ;
	   fill: none;
  }
  .circle {
	   stroke: #888888;
	   stroke-width: 0.5;
	   fill: none;
    pointer-events: all;
  }
  .nLabel {
	   font-family: Arial;
    pointer-events: none;
	   font-size: 10px;
	   text-anchor: middle;
	   alignment-baseline: central;
  }
  .belong {
	   font-family: Arial;
    pointer-events: none;
	   font-size: 5px;
	   text-anchor: middle;
	   alignment-baseline: central;
  }
  .legend {
    font-family: Arial;
    font-size: 15px;
  }
  #legendBox {
    display:  inline ;
  }
  .p0{
    stroke: none;
    fill:  #EFC000FF ;
  }
  .q0{
    fill: none;
    stroke:  #EFC000FF ;
  }
  .p1{
    stroke: none;
    fill:  #868686FF ;
  }
  .q1{
    fill: none;
    stroke:  #868686FF ;
  }
  .p2{
    stroke: none;
    fill:  #CD534CFF ;
  }
  .q2{
    fill: none;
    stroke:  #CD534CFF ;
  }
]]>
</style>
<symbol id="bl0">
<path d="M 271.85 225.86 L 272.22 232.25 L 271.83 239.02 L 270.51 245.86 L 268.26 252.48 L 265.14 258.63 L 261.35 264.12 L 257.10 268.85 L 252.58 272.86 L 247.89 276.19 L 243.09 278.81 L 238.19 280.80 L 233.19 282.22 L 228.10 283.04 L 222.95 283.33 L 217.81 283.08 L 212.72 282.28 L 207.73 280.97 L 202.90 279.18 L 198.24 276.93 L 193.74 274.33 L 189.34 271.54 L 185.01 268.65 L 180.72 265.70 L 176.46 262.72 L 172.19 259.74 L 167.93 256.75 L 163.67 253.77 L 159.42 250.77 L 155.16 247.79 L 150.90 244.80 L 146.64 241.82 L 142.38 238.83 L 138.13 235.84 L 133.87 232.86 L 129.61 229.87 L 125.36 226.88 L 121.10 223.90 L 116.85 220.91 L 112.59 217.93 L 108.34 214.94 L 104.08 211.95 L 99.83 208.97 L 95.58 205.98 L 91.32 202.99 L 87.08 200.00 L 82.86 196.98 L 78.69 193.90 L 74.64 190.67 L 70.74 187.26 L 67.02 183.67 L 63.49 179.89 L 60.16 175.93 L 57.05 171.80 L 54.15 167.52 L 51.49 163.08 L 49.06 158.52 L 46.86 153.83 L 44.93 149.03 L 43.25 144.14 L 41.82 139.17 L 40.66 134.13 L 39.76 129.03 L 39.13 123.90 L 38.77 118.73 L 38.69 113.56 L 38.87 108.39 L 39.33 103.23 L 40.05 98.11 L 41.04 93.03 L 42.30 88.01 L 43.81 83.06 L 45.58 78.19 L 47.62 73.44 L 49.89 68.78 L 52.40 64.25 L 55.15 59.87 L 58.13 55.64 L 61.31 51.56 L 64.72 47.66 L 68.32 43.94 L 72.10 40.41 L 76.08 37.09 L 80.21 33.97 L 84.51 31.08 L 88.95 28.43 L 93.52 26.00 L 98.21 23.81 L 103.02 21.89 L 107.91 20.21 L 112.89 18.79 L 117.93 17.64 L 123.03 16.75 L 128.17 16.12 L 133.33 15.77 L 138.50 15.69 L 143.67 15.88 L 148.83 16.35 L 153.95 17.08 L 159.02 18.07 L 164.04 19.34 L 168.98 20.87 L 173.84 22.64 L 178.59 24.69 L 183.23 26.97 L 187.75 29.49 L 192.13 32.25 L 196.35 35.23 L 200.42 38.43 L 204.31 41.84 L 208.01 45.45 L 211.53 49.25 L 214.83 53.23 L 217.93 57.38 L 220.80 61.68 L 223.44 66.13 L 225.85 70.71 L 228.03 75.41 L 229.97 80.21 L 231.73 85.09 L 233.35 90.02 L 234.88 94.98 L 236.35 99.96 L 237.79 104.93 L 239.22 109.92 L 240.65 114.91 L 242.08 119.89 L 243.52 124.87 L 244.97 129.86 L 246.42 134.83 L 247.87 139.81 L 249.33 144.80 L 250.78 149.78 L 252.23 154.76 L 253.68 159.74 L 255.13 164.72 L 256.59 169.70 L 258.04 174.68 L 259.49 179.66 L 260.95 184.65 L 262.40 189.63 L 263.85 194.61 L 265.31 199.59 L 266.76 204.58 L 268.22 209.60 L 269.63 214.70 L 270.91 220.05 Z" />
</symbol>
<symbol id="bl1">
<path d="M 357.26 191.82 L 355.31 195.54 L 353.36 199.25 L 351.41 202.97 L 349.46 206.69 L 347.51 210.40 L 345.55 214.11 L 343.55 217.79 L 341.48 221.43 L 339.23 224.97 L 336.75 228.35 L 334.00 231.52 L 330.96 234.40 L 327.59 236.92 L 323.88 239.07 L 319.83 240.82 L 315.44 242.13 L 310.83 242.97 L 306.21 243.31 L 301.68 243.07 L 297.31 242.30 L 293.11 241.02 L 289.12 239.23 L 285.38 236.98 L 281.92 234.31 L 278.82 231.23 L 276.07 227.80 L 273.72 224.06 L 271.77 220.04 L 270.14 215.85 L 268.71 211.65 L 267.41 207.50 L 266.18 203.42 L 264.99 199.38 L 263.81 195.35 L 262.64 191.33 L 261.47 187.31 L 260.30 183.28 L 259.13 179.25 L 257.95 175.23 L 256.78 171.21 L 255.60 167.19 L 254.43 163.16 L 253.26 159.14 L 252.09 155.12 L 250.92 151.10 L 249.74 147.08 L 248.57 143.06 L 247.40 139.04 L 246.23 135.02 L 245.06 131.00 L 243.89 126.97 L 242.73 122.95 L 241.61 118.92 L 240.54 114.87 L 239.57 110.79 L 238.72 106.69 L 238.03 102.56 L 237.55 98.41 L 237.28 94.23 L 237.22 90.06 L 237.38 85.88 L 237.75 81.71 L 238.33 77.57 L 239.13 73.47 L 240.14 69.41 L 241.35 65.41 L 242.78 61.48 L 244.40 57.62 L 246.22 53.86 L 248.23 50.20 L 250.43 46.64 L 252.81 43.20 L 255.36 39.89 L 258.08 36.72 L 260.96 33.69 L 264.00 30.81 L 267.17 28.10 L 270.48 25.54 L 273.92 23.17 L 277.48 20.98 L 281.15 18.97 L 284.92 17.16 L 288.77 15.54 L 292.70 14.12 L 296.70 12.91 L 300.76 11.90 L 304.86 11.10 L 309.00 10.53 L 313.17 10.16 L 317.35 10.00 L 321.53 10.07 L 325.70 10.35 L 329.85 10.83 L 333.97 11.54 L 338.05 12.46 L 342.08 13.58 L 346.04 14.92 L 349.93 16.45 L 353.74 18.18 L 357.45 20.11 L 361.05 22.23 L 364.55 24.52 L 367.92 27.00 L 371.15 29.65 L 374.25 32.45 L 377.20 35.42 L 379.99 38.53 L 382.62 41.78 L 385.07 45.17 L 387.35 48.68 L 389.45 52.29 L 391.35 56.01 L 393.06 59.83 L 394.57 63.72 L 395.87 67.69 L 396.97 71.72 L 397.87 75.81 L 398.55 79.93 L 399.01 84.09 L 399.27 88.26 L 399.30 92.44 L 399.12 96.61 L 398.73 100.77 L 398.12 104.90 L 397.29 109.00 L 396.27 113.05 L 395.03 117.05 L 393.61 120.98 L 392.01 124.84 L 390.26 128.64 L 388.39 132.39 L 386.47 136.11 L 384.53 139.83 L 382.59 143.55 L 380.64 147.26 L 378.70 150.97 L 376.75 154.68 L 374.80 158.40 L 372.85 162.11 L 370.90 165.82 L 368.95 169.54 L 367.01 173.25 L 365.06 176.97 L 363.11 180.68 L 361.16 184.40 L 359.21 188.11 Z" />
</symbol>
<symbol id="bl2">
<path d="M 460.64 378.31 L 459.85 384.37 L 458.77 390.38 L 457.40 396.33 L 455.73 402.21 L 453.78 408.00 L 451.55 413.69 L 449.04 419.26 L 446.26 424.70 L 443.22 430.00 L 439.92 435.14 L 436.37 440.12 L 432.58 444.92 L 428.56 449.52 L 424.32 453.92 L 419.88 458.12 L 415.23 462.08 L 410.39 465.82 L 405.37 469.32 L 400.19 472.55 L 394.86 475.54 L 389.39 478.27 L 383.78 480.72 L 378.07 482.89 L 372.26 484.79 L 366.36 486.38 L 360.39 487.70 L 354.37 488.72 L 348.30 489.44 L 342.20 489.87 L 336.09 490.00 L 329.98 489.82 L 323.89 489.35 L 317.82 488.59 L 311.81 487.51 L 305.85 486.15 L 299.96 484.51 L 294.17 482.57 L 288.48 480.35 L 282.90 477.86 L 277.45 475.09 L 272.15 472.06 L 266.99 468.78 L 262.02 465.24 L 257.21 461.47 L 252.60 457.47 L 248.19 453.24 L 244.00 448.80 L 240.02 444.17 L 236.28 439.34 L 232.78 434.34 L 229.53 429.17 L 226.54 423.84 L 223.81 418.38 L 221.34 412.79 L 219.12 407.09 L 217.12 401.31 L 215.28 395.48 L 213.54 389.61 L 211.87 383.73 L 210.24 377.83 L 208.62 371.93 L 207.00 366.03 L 205.38 360.13 L 203.77 354.23 L 202.15 348.33 L 200.54 342.42 L 198.92 336.51 L 197.31 330.61 L 195.69 324.71 L 194.07 318.80 L 192.46 312.89 L 190.84 306.98 L 189.23 301.07 L 187.61 295.16 L 186.00 289.25 L 184.38 283.34 L 182.76 277.43 L 181.15 271.52 L 179.56 265.60 L 178.00 259.67 L 176.52 253.71 L 175.22 247.72 L 174.21 241.69 L 173.73 235.64 L 173.93 229.60 L 174.84 223.62 L 176.48 217.81 L 178.88 212.28 L 181.96 207.09 L 185.68 202.35 L 189.99 198.13 L 194.75 194.37 L 199.84 191.05 L 205.25 188.27 L 210.98 186.12 L 216.96 184.47 L 223.06 183.10 L 229.21 181.87 L 235.38 180.71 L 241.55 179.57 L 247.72 178.44 L 253.89 177.31 L 260.05 176.18 L 266.22 175.06 L 272.40 173.93 L 278.57 172.83 L 284.75 171.80 L 290.96 170.97 L 297.23 170.51 L 303.54 170.57 L 309.85 171.13 L 316.03 172.23 L 321.89 174.09 L 327.33 176.85 L 332.38 180.34 L 337.13 184.29 L 341.62 188.51 L 345.95 192.88 L 350.19 197.31 L 354.41 201.76 L 358.62 206.21 L 362.82 210.67 L 367.02 215.12 L 371.23 219.59 L 375.43 224.04 L 379.63 228.50 L 383.83 232.96 L 388.03 237.41 L 392.23 241.87 L 396.43 246.32 L 400.63 250.78 L 404.83 255.23 L 409.03 259.69 L 413.22 264.14 L 417.41 268.61 L 421.56 273.10 L 425.66 277.64 L 429.68 282.26 L 433.57 286.98 L 437.27 291.84 L 440.75 296.87 L 443.98 302.05 L 446.97 307.38 L 449.68 312.85 L 452.12 318.45 L 454.29 324.15 L 456.17 329.96 L 457.76 335.86 L 459.07 341.82 L 460.08 347.85 L 460.79 353.92 L 461.21 360.01 L 461.31 366.11 L 461.13 372.22 Z" />
</symbol>
</defs>
<!-- isDone: 0 -->
<rect width="700" height="500" style="fill:#fff;stroke-width:0" />
<use class="p0 borderLine" xlink:href="#bl0"/>
<use class="p1 borderLine" xlink:href="#bl1"/>
<use class="p2 borderLine" xlink:href="#bl2"/>
<use class="q0 outLine" xlink:href="#bl0"/>
<use class="q1 outLine" xlink:href="#bl1"/>
<use class="q2 outLine" xlink:href="#bl2"/>
<circle onclick="fromCircle(4)" class="circle" cx="136.9780" cy="114.1000" r="95.1461" />
<text class="nLabel" x="136.98" y="109.10">515</text>
<text class="belong" x="136.98" y="119.10">(1)</text>
<circle onclick="fromCircle(2)" class="circle" cx="318.3645" cy="90.7461" r="77.3084" />
<text class="nLabel" x="318.36" y="85.75">340</text>
<text class="belong" x="318.36" y="95.75">(2)</text>
<circle onclick="fromCircle(3)" class="circle" cx="306.4972" cy="206.2670" r="34.0612" />
<text class="nLabel" x="306.50" y="201.27">66</text>
<text class="belong" x="306.50" y="211.27">(2, 3)</text>
<circle onclick="fromCircle(1)" class="circle" cx="336.9548" cy="366.0773" r="121.2245" />
<text class="nLabel" x="336.95" y="361.08">836</text>
<text class="belong" x="336.95" y="371.08">(3)</text>
<circle onclick="fromCircle(5)" class="circle" cx="222.8886" cy="233.7607" r="46.4986" />
<text class="nLabel" x="222.89" y="228.76">123</text>
<text class="belong" x="222.89" y="238.76">(1, 3)</text>
<g id="legendBox">
<rect class="p0 borderLine" x="500.00" y="50.00" width="30.00" height="15.00" />
<rect class="q0" x="500.00" y="50.00" width="30.00" height="15.00" />
<text class="legend" x="540.00" y="65.00">spermidine_up</text>
<rect class="p1 borderLine" x="500.00" y="90.00" width="30.00" height="15.00" />
<rect class="q1" x="500.00" y="90.00" width="30.00" height="15.00" />
<text class="legend" x="540.00" y="105.00">spermidine_down</text>
<rect class="p2 borderLine" x="500.00" y="130.00" width="30.00" height="15.00" />
<rect class="q2" x="500.00" y="130.00" width="30.00" height="15.00" />
<text class="legend" x="540.00" y="145.00">at_risk_patients_up</text>
</g>
</svg>
