<svg xmlns="http://www.w3.org/2000/svg" xmlns:xlink="http://www.w3.org/1999/xlink" width="700" height="500">
<defs>
<style type="text/css"><![CDATA[
  .borderLine {
	   stroke: none;
	   fill-opacity:  0.2 ;
  }
  .outLine {
	   stroke-width:  1 ;
	   fill: none;
  }
  .circle {
	   stroke: #888888;
	   stroke-width: 0.5;
	   fill: none;
    pointer-events: all;
  }
  .nLabel {
	   font-family: Arial;
    pointer-events: none;
	   font-size: 10px;
	   text-anchor: middle;
	   alignment-baseline: central;
  }
  .belong {
	   font-family: Arial;
    pointer-events: none;
	   font-size: 5px;
	   text-anchor: middle;
	   alignment-baseline: central;
  }
  .legend {
    font-family: Arial;
    font-size: 15px;
  }
  #legendBox {
    display:  inline ;
  }
  .p0{
    stroke: none;
    fill:  #EFC000FF ;
  }
  .q0{
    fill: none;
    stroke:  #EFC000FF ;
  }
  .p1{
    stroke: none;
    fill:  #868686FF ;
  }
  .q1{
    fill: none;
    stroke:  #868686FF ;
  }
]]>
</style>
<symbol id="bl0">
<path d="M 199.34 451.00 L 184.25 456.06 L 169.13 460.89 L 153.96 464.85 L 138.78 467.23 L 123.70 468.11 L 108.99 467.03 L 94.83 463.30 L 81.62 456.52 L 70.03 447.01 L 60.60 434.90 L 53.98 420.83 L 50.26 406.45 L 50.00 391.98 L 52.23 377.36 L 55.88 362.50 L 60.68 347.29 L 66.02 331.91 L 71.32 316.56 L 76.26 301.35 L 80.98 286.26 L 85.70 271.25 L 90.54 256.34 L 95.48 241.47 L 100.47 226.59 L 105.51 211.65 L 110.61 196.65 L 115.79 181.52 L 121.16 166.22 L 126.84 150.94 L 133.26 136.03 L 140.88 121.83 L 149.36 108.32 L 158.58 95.76 L 168.68 84.60 L 179.52 74.43 L 191.31 65.03 L 204.42 56.53 L 218.40 48.81 L 232.95 42.10 L 248.07 36.85 L 263.53 32.77 L 279.22 29.91 L 295.15 28.71 L 311.22 28.78 L 327.33 30.16 L 343.46 33.29 L 359.47 37.70 L 375.11 43.29 L 390.09 50.39 L 404.45 58.62 L 417.97 67.98 L 430.27 78.81 L 441.61 90.66 L 451.99 103.30 L 461.07 116.84 L 469.13 131.01 L 476.08 145.71 L 481.51 161.05 L 485.74 176.80 L 488.72 192.81 L 490.00 209.04 L 489.99 225.30 L 488.70 241.28 L 485.72 256.71 L 481.51 271.75 L 476.17 286.45 L 469.37 300.74 L 461.49 314.66 L 452.58 328.01 L 442.35 340.51 L 431.17 352.23 L 419.23 362.93 L 406.36 372.18 L 392.83 380.40 L 378.72 387.80 L 363.93 394.27 L 348.76 400.13 L 333.52 405.62 L 318.38 410.77 L 303.35 415.74 L 288.43 420.71 L 273.68 425.78 L 258.99 430.89 L 244.24 435.98 L 229.36 440.99 L 214.38 445.97 Z" />
</symbol>
<symbol id="bl1">
<path d="M 96.69 469.29 L 91.01 467.44 L 85.75 465.25 L 80.60 462.75 L 75.45 459.88 L 70.37 456.73 L 65.60 453.30 L 61.34 449.50 L 57.39 445.47 L 53.54 441.29 L 49.68 436.96 L 45.84 432.56 L 42.08 428.13 L 38.46 423.73 L 34.86 419.37 L 31.10 415.12 L 27.02 411.02 L 22.84 407.00 L 18.86 402.91 L 15.38 398.67 L 12.45 394.22 L 10.48 389.42 L 10.00 384.09 L 10.71 378.60 L 12.66 373.45 L 16.25 369.05 L 20.83 365.20 L 25.87 361.76 L 31.17 358.75 L 36.60 355.98 L 42.05 353.24 L 47.46 350.46 L 52.83 347.71 L 58.10 345.12 L 63.24 342.86 L 68.34 340.77 L 73.52 338.67 L 78.89 336.48 L 84.39 334.25 L 89.98 332.11 L 95.65 330.16 L 101.41 328.43 L 107.29 327.02 L 113.35 326.13 L 119.53 325.61 L 125.77 325.49 L 132.04 325.89 L 138.21 326.80 L 144.03 328.44 L 149.24 331.14 L 154.06 334.53 L 158.65 338.30 L 163.06 342.37 L 167.38 346.61 L 171.63 350.91 L 175.77 355.26 L 179.62 359.73 L 182.96 364.39 L 185.90 369.21 L 188.38 374.24 L 190.24 379.55 L 191.73 385.03 L 193.03 390.57 L 194.15 396.13 L 194.95 401.69 L 194.99 407.20 L 193.79 412.64 L 191.82 417.98 L 189.53 423.21 L 187.04 428.29 L 184.32 433.36 L 181.12 438.68 L 177.13 444.32 L 172.69 449.68 L 168.08 454.10 L 163.37 457.81 L 158.48 460.93 L 153.29 463.37 L 147.93 465.36 L 142.55 467.01 L 137.22 468.30 L 131.91 469.35 L 126.55 470.22 L 121.06 470.88 L 115.40 471.29 L 109.40 471.29 L 102.99 470.59 Z" />
</symbol>
</defs>
<!-- isDone: 0 -->
<rect width="700" height="500" style="fill:#fff;stroke-width:0" />
<use class="p0 borderLine" xlink:href="#bl0"/>
<use class="p1 borderLine" xlink:href="#bl1"/>
<use class="q0 outLine" xlink:href="#bl0"/>
<use class="q1 outLine" xlink:href="#bl1"/>
<circle onclick="fromCircle(2)" class="circle" cx="303.2531" cy="215.5524" r="185.5008" />
<text class="nLabel" x="303.25" y="210.55">834</text>
<text class="belong" x="303.25" y="220.55">(1)</text>
<circle onclick="fromCircle(3)" class="circle" cx="119.6490" cy="398.6046" r="68.8829" />
<text class="nLabel" x="119.65" y="393.60">115</text>
<text class="belong" x="119.65" y="403.60">(1, 2)</text>
<circle onclick="fromCircle(1)" class="circle" cx="29.9334" cy="384.3953" r="18.1680" />
<text class="nLabel" x="29.93" y="379.40">8</text>
<text class="belong" x="29.93" y="389.40">(2)</text>
<g id="legendBox">
<rect class="p0 borderLine" x="500.00" y="50.00" width="30.00" height="15.00" />
<rect class="q0" x="500.00" y="50.00" width="30.00" height="15.00" />
<text class="legend" x="540.00" y="65.00">overlap_both_spermidine</text>
<rect class="p1 borderLine" x="500.00" y="90.00" width="30.00" height="15.00" />
<rect class="q1" x="500.00" y="90.00" width="30.00" height="15.00" />
<text class="legend" x="540.00" y="105.00">overlap_up_spermidine_up_at_risk</text>
</g>
</svg>
