<svg xmlns="http://www.w3.org/2000/svg" xmlns:xlink="http://www.w3.org/1999/xlink" width="700" height="500">
<defs>
<style type="text/css"><![CDATA[
  .borderLine {
	   stroke: none;
	   fill-opacity:  0.2 ;
  }
  .outLine {
	   stroke-width:  1 ;
	   fill: none;
  }
  .circle {
	   stroke: #888888;
	   stroke-width: 0.5;
	   fill: none;
    pointer-events: all;
  }
  .nLabel {
	   font-family: Arial;
    pointer-events: none;
	   font-size: 10px;
	   text-anchor: middle;
	   alignment-baseline: central;
  }
  .belong {
	   font-family: Arial;
    pointer-events: none;
	   font-size: 5px;
	   text-anchor: middle;
	   alignment-baseline: central;
  }
  .legend {
    font-family: Arial;
    font-size: 15px;
  }
  #legendBox {
    display:  inline ;
  }
  .p0{
    stroke: none;
    fill:  #EFC000FF ;
  }
  .q0{
    fill: none;
    stroke:  #EFC000FF ;
  }
  .p1{
    stroke: none;
    fill:  #868686FF ;
  }
  .q1{
    fill: none;
    stroke:  #868686FF ;
  }
]]>
</style>
<symbol id="bl0">
<path d="M 166.49 348.25 L 159.74 339.83 L 153.74 330.95 L 148.41 321.65 L 143.96 311.81 L 140.16 301.62 L 136.97 291.18 L 134.63 280.44 L 133.01 269.47 L 132.36 258.16 L 133.09 246.40 L 134.88 234.41 L 137.68 222.44 L 141.76 210.69 L 146.73 199.26 L 152.38 188.45 L 158.80 178.64 L 165.76 169.57 L 173.18 161.18 L 181.18 153.65 L 189.67 146.80 L 198.75 140.67 L 208.68 135.53 L 219.17 131.16 L 230.04 127.57 L 241.29 125.03 L 252.74 123.30 L 264.21 122.40 L 275.59 122.61 L 286.85 123.65 L 297.86 125.50 L 308.49 128.40 L 318.81 132.07 L 328.82 136.48 L 338.43 141.79 L 347.79 147.71 L 357.04 154.00 L 366.22 160.66 L 375.36 167.52 L 384.44 174.40 L 393.43 181.23 L 402.35 188.04 L 411.22 194.83 L 420.01 201.62 L 428.80 208.41 L 437.71 215.19 L 446.80 221.97 L 455.87 228.82 L 464.50 235.96 L 472.27 243.61 L 479.18 251.79 L 484.76 260.82 L 488.28 271.06 L 490.00 281.81 L 489.41 292.12 L 485.51 301.32 L 479.19 309.75 L 470.77 317.70 L 459.94 325.04 L 448.17 331.49 L 436.79 336.75 L 425.86 341.31 L 415.13 345.64 L 404.49 349.92 L 393.86 354.23 L 383.22 358.59 L 372.54 363.05 L 361.85 367.54 L 351.20 371.96 L 340.64 376.22 L 330.12 380.30 L 319.60 384.09 L 309.04 387.39 L 298.44 390.22 L 287.80 392.34 L 277.10 393.40 L 266.35 393.65 L 255.55 393.11 L 244.70 391.54 L 233.83 389.17 L 223.01 385.90 L 212.33 381.42 L 201.87 376.09 L 191.90 370.11 L 182.74 363.35 L 174.25 356.05 Z" />
</symbol>
<symbol id="bl1">
<path d="M 102.49 294.31 L 93.80 285.60 L 85.32 276.85 L 76.77 268.34 L 67.97 260.25 L 59.03 252.43 L 50.06 244.65 L 41.19 236.76 L 32.66 228.55 L 24.98 219.52 L 18.32 209.31 L 13.45 197.95 L 10.64 186.10 L 10.00 174.10 L 11.33 162.25 L 14.26 150.91 L 19.75 140.48 L 26.82 130.70 L 35.50 122.18 L 45.64 115.31 L 56.92 110.22 L 68.92 107.26 L 81.19 106.35 L 93.68 106.84 L 106.07 107.78 L 118.15 108.75 L 130.03 109.71 L 141.89 110.75 L 153.81 111.94 L 165.79 113.15 L 177.82 114.23 L 189.93 115.04 L 202.08 115.69 L 214.26 116.33 L 226.47 117.06 L 238.74 117.86 L 251.12 118.77 L 263.68 119.86 L 276.33 121.25 L 288.91 123.32 L 301.33 126.48 L 313.51 130.49 L 325.21 135.33 L 336.16 141.24 L 346.55 147.98 L 356.41 155.54 L 365.59 164.19 L 374.15 173.60 L 381.89 183.63 L 388.41 194.41 L 393.92 205.65 L 398.25 217.17 L 400.95 228.98 L 402.48 241.02 L 403.01 253.37 L 402.40 266.15 L 400.95 279.04 L 398.44 291.53 L 394.94 303.29 L 390.63 314.53 L 385.36 325.42 L 378.73 335.89 L 371.15 345.96 L 362.78 355.37 L 353.47 363.76 L 343.53 371.32 L 333.11 377.98 L 322.15 383.37 L 310.80 387.76 L 299.10 391.04 L 286.96 392.83 L 274.59 393.54 L 262.19 393.29 L 249.86 391.84 L 237.64 389.46 L 225.57 386.08 L 213.73 381.34 L 202.16 375.62 L 191.04 368.98 L 180.57 361.25 L 170.51 352.91 L 160.55 344.43 L 150.58 336.07 L 140.61 327.79 L 130.76 319.52 L 121.09 311.20 L 111.64 302.83 Z" />
</symbol>
</defs>
<!-- isDone: 0 -->
<rect width="700" height="500" style="fill:#fff;stroke-width:0" />
<use class="p0 borderLine" xlink:href="#bl0"/>
<use class="p1 borderLine" xlink:href="#bl1"/>
<use class="q0 outLine" xlink:href="#bl0"/>
<use class="q1 outLine" xlink:href="#bl1"/>
<circle onclick="fromCircle(2)" class="circle" cx="446.4062" cy="281.7330" r="42.3882" />
<text class="nLabel" x="446.41" y="276.73">95</text>
<text class="belong" x="446.41" y="286.73">(1)</text>
<circle onclick="fromCircle(3)" class="circle" cx="268.4438" cy="258.2543" r="133.9726" />
<text class="nLabel" x="268.44" y="253.25">949</text>
<text class="belong" x="268.44" y="263.25">(1, 2)</text>
<circle onclick="fromCircle(1)" class="circle" cx="79.6550" cy="176.1424" r="69.4469" />
<text class="nLabel" x="79.65" y="171.14">255</text>
<text class="belong" x="79.65" y="181.14">(2)</text>
<g id="legendBox">
<rect class="p0 borderLine" x="500.00" y="50.00" width="30.00" height="15.00" />
<rect class="q0" x="500.00" y="50.00" width="30.00" height="15.00" />
<text class="legend" x="540.00" y="65.00">spermidine</text>
<rect class="p1 borderLine" x="500.00" y="90.00" width="30.00" height="15.00" />
<rect class="q1" x="500.00" y="90.00" width="30.00" height="15.00" />
<text class="legend" x="540.00" y="105.00">both</text>
</g>
</svg>
